<svg xmlns="http://www.w3.org/2000/svg" viewBox="0 0 34.836 34.836">
  <defs>
    <style>
      .cls-1 {
        isolation: isolate;
      }

      .cls-2 {
        fill: #fff;
      }

      .cls-3 {
        fill: #d7dbdb;
        mix-blend-mode: multiply;
      }

      .cls-4 {
        fill: #5d6f70;
      }
    </style>
  </defs>
  <title>medical-three</title>
  <g class="cls-1">
    <g id="Шар_2" data-name="Шар 2">
      <g id="BACKGROUND_1" data-name="BACKGROUND 1">
        <g>
          <path class="cls-2" d="M20.988,1.358C18.7.24,15.941.5,13.542,1.123a1.563,1.563,0,0,0-1.061,1.523c-.06,1.977-.108,3.983-.018,5.959.059,1.286.828,3.812-.508,4.716-.882.6-3.125.091-4.182.136a37.607,37.607,0,0,0-6.065.776c-.413.088-.708.693-.267.972a6.447,6.447,0,0,0,.817.44,8.449,8.449,0,0,0-.286,2.2A14.168,14.168,0,0,0,2,20.757c.208,1.478,2.475,1.223,2.553-.212a10.331,10.331,0,0,0-.48-4.378,33.024,33.024,0,0,0,4.1.178c1.955.06,4.731.5,6.362-.9,1.307-1.128,1.288-2.864,1.205-4.456-.124-2.4-.233-4.775-.214-7.174a6.754,6.754,0,0,1,4.008.237C21.3,4.909,22.757,2.224,20.988,1.358Z"/>
          <path class="cls-3" d="M33.033,13.468a1.3,1.3,0,0,0-2.368.12c-.386,1.062.015,1.86-.035,2.936-.066,1.415-.6,1.184-1.793,1.19a42.563,42.563,0,0,0-8.164.95.772.772,0,0,0-.99.439c-.774,1.995-.672,4.207-.691,6.323-.015,1.715-.009,3.424.111,5.129-2.009-.435-4.165-.493-5.773.866a.939.939,0,0,0-.1,1.463,2.575,2.575,0,0,0,2.247.655,11.752,11.752,0,0,1,4.942.516,1.524,1.524,0,0,0,1.918-1.462,65.632,65.632,0,0,1-.344-7.051,20.408,20.408,0,0,0-.337-5.056,37.894,37.894,0,0,0,4.587.2c1.64,0,3.639.407,5.237-.016C34.46,19.878,34.115,15.655,33.033,13.468Z"/>
          <path class="cls-4" d="M34.571,17.493a29.9,29.9,0,0,1-.145-4.878,1.358,1.358,0,0,0-.058-.709.924.924,0,0,0-.812-.463q-5.328-.014-10.655.074c-.042-.819-.078-1.639-.134-2.457q-.151-2.211-.354-4.419c-.064-.687-.158-1.373-.21-2.06a10.42,10.42,0,0,0-.112-1.5,1.237,1.237,0,0,0-.5-.833A3.844,3.844,0,0,0,19.909.05C19.246.02,18.582,0,17.919,0A33.1,33.1,0,0,0,13.95.208c-.66.078-2.01.08-2.108.983a80.294,80.294,0,0,0-.356,10.745c-.809.043-1.618.078-2.426.133q-2.211.151-4.419.354c-.687.064-1.373.157-2.06.21a10.279,10.279,0,0,0-1.5.112,1.237,1.237,0,0,0-.833.5,3.844,3.844,0,0,0-.195,1.68C.02,15.59,0,16.253,0,16.917a33.076,33.076,0,0,0,.208,3.968c.078.661.08,2.011.982,2.109a80.921,80.921,0,0,0,10.9.352c.062.946.127,1.892.182,2.838.081,1.4.152,2.795.2,4.193q.037,1.065.059,2.129c.017.89-.035,1.669.915,2.076,1.226.527,2.632.085,3.9-.011a29.9,29.9,0,0,1,4.878-.145,1.354,1.354,0,0,0,.708-.058.924.924,0,0,0,.464-.812q.014-5.406-.076-10.811c.955-.061,1.911-.124,2.867-.179,1.4-.081,2.795-.152,4.193-.2.71-.025,1.42-.046,2.129-.059.89-.017,1.669.035,2.076-.915C35.109,20.164,34.667,18.758,34.571,17.493ZM20.738,20.255c.239,3.73.554,8.191.635,11.924-1.448.02-2.895.076-4.337.208a17.7,17.7,0,0,0-2.506.282,27.828,27.828,0,0,0,0-2.991c0-2.538-.042-5.077-.074-7.615a9.5,9.5,0,0,0-.111-1.388.2.2,0,0,0-.129-.022c-2.3.124-5.441.275-7.737.429-.939.064-1.88.129-2.817.222a3.43,3.43,0,0,0-1.318.221A35.245,35.245,0,0,0,2.068,14.2a37.91,37.91,0,0,0,4.81.272c1.955.048,3.9.075,5.861.083a1.9,1.9,0,0,0,.8-.086c.815-.306.572-1.825.524-2.679q-.09-1.6-.2-3.2-.22-3.126-.548-6.244a35.236,35.236,0,0,0,7.325-.274c-.369,3.908-.214,11.938-.2,12.037,3.774-.24,7.968-.56,11.746-.642.02,1.448.076,2.894.208,4.337a17.673,17.673,0,0,0,.282,2.5C28.92,20.3,20.884,20.24,20.738,20.255Z"/>
        </g>
      </g>
    </g>
  </g>
</svg>
