<svg xmlns="http://www.w3.org/2000/svg" viewBox="0 0 59.321 59.321">
  <defs>
    <style>
      .cls-1 {
        isolation: isolate;
      }

      .cls-2 {
        fill: #fff;
      }

      .cls-3 {
        fill: #d7dbdb;
        mix-blend-mode: multiply;
      }

      .cls-4 {
        fill: #5d6f70;
      }
    </style>
  </defs>
  <title>medical-five</title>
  <g class="cls-1">
    <g id="Шар_2" data-name="Шар 2">
      <g id="BACKGROUND_1" data-name="BACKGROUND 1">
        <g>
          <path class="cls-2" d="M56.239,34.88c-2.993-4.257-9.617-6.089-14.259-8.075.64-1.178,1.287-2.353,1.968-3.511,2.259-3.841,5.3-8.241,5.243-12.873-.093-7-9.467-10.268-13.8-4.9-4.479,2.865-6.34,7.937-9.137,12.842-1.832-1.029-3.682-2.032-5.579-2.961-3.293-1.612-6.836-3.162-10.177-2.585a.624.624,0,0,0-.58-.671,4.853,4.853,0,0,0-3.769,1.022,1.026,1.026,0,0,0-1.007.288C2.659,15.92.828,20.343,2.76,23.346A11.311,11.311,0,0,0,4.944,28.19c3.031,3.935,7.822,5.153,12.291,6.76-.436.6-.879,1.251-1.316,1.94a16.436,16.436,0,0,0-2.755,5.237c-2.488,6-2.811,12.644,4.9,15.241,8.853,2.981,13.676-8.158,16.553-15.007,1.933.83,3.862,1.665,5.8,2.485,4.492,1.9,9.924,5.71,14.245,1.442C57.49,43.5,58.6,38.241,56.239,34.88ZM9.864,24.543a12.162,12.162,0,0,1,1.481-2.476A17.108,17.108,0,0,1,9.864,24.543Z"/>
          <g>
            <path class="cls-3" d="M55.169,41.936c-2.613,1.926-4.546,3.689-7.985,3.408-2.835-.231-5.421-1.6-7.887-2.907-4.723-2.506-9.429-5.049-14.177-7.51-4.19-2.171-8.394-4.316-12.576-6.5-4.118-2.155-8.228-3.77-10.224-8.309a.542.542,0,0,0-1.027.3c.286,4.521,4.049,7,7.622,9.137,7.6,4.547,15.479,8.666,23.291,12.827,4.82,2.567,9.855,6.171,15.517,6.264,3.732.062,8.03-1.505,9.121-5.371C57.121,42.287,56.143,41.218,55.169,41.936Z"/>
            <path class="cls-3" d="M34.451,45.423c-1.019-2.14-4.432-2.969-6.41-4.081-2.226-1.252-4.486-2.456-6.761-3.616-1.787-.911-3.443-2.078-5.462-2.3a.762.762,0,0,0-.5,1.416c3.1,2.108,6.231,4.033,9.494,5.9,2.694,1.537,5.584,3.905,8.8,3.986A.9.9,0,0,0,34.451,45.423Z"/>
            <path class="cls-2" d="M55.159,32.33c-1.5-1.833-8.553-5.032-11.167-6.666-4.823-3.016-10.976-5.727-16.3-8.378,2.514-3.029,3.737-6.991,6.554-9.816,4.706-4.721,10.172-1.267,14.8,1.7.6.385,1.645.11,1.646-.735,0-4.772-9.681-7.407-13.372-6.467-5.9,1.5-9.971,9.135-10.728,14.756-.367-.186-.744-.374-1.1-.56C18.753,12.637,5.221,4.5,2.844,17.143a.84.84,0,0,0,1.556.575c4.024-7.146,10.836-3.674,16.627-1.135a127.326,127.326,0,0,1,11.581,6.024c3.67,2.074,7.584,3.666,11.189,5.864A97.765,97.765,0,0,0,54.659,33.5C55.291,33.764,55.61,32.882,55.159,32.33Z"/>
            <path class="cls-2" d="M18.214,56.078c-1.957-2.45-4.511-2.967-4.776-6.544a23.394,23.394,0,0,1,.888-8.37,9.863,9.863,0,0,0,.666-3.334c0-.313.322.252.024.355-3.728,1.284-4.965,8.419-4.691,11.733.287,3.467,3.354,9.067,7.6,7.222A.7.7,0,0,0,18.214,56.078Z"/>
            <path class="cls-2" d="M42.034,30.275c-.767-2.286-3.106-2.972-5.087-4.116-3.018-1.743-6.121-3.578-9.647-4.043-4.394-.579-9.418,3.319-7.294,8.049.131.29.634.451.779.064,1.739-4.615,3.608-6.568,7.837-5.377a24.547,24.547,0,0,1,4.754,2.032c2.594,1.374,5.092,3.107,7.837,4.14A.644.644,0,0,0,42.034,30.275Z"/>
            <g>
              <g>
                <path class="cls-4" d="M50.288,27.962c-8.027-4.183-16.008-8.021-23.7-12.812a58.944,58.944,0,0,0-9.964-5.328c-3.648-1.395-7.908-2.643-11.175.2a16.286,16.286,0,0,0-3.5,4.322A17.709,17.709,0,0,0,.092,20.128c-.872,6.16,4.628,9.49,9.4,12.015,7.99,4.23,31.016,15.347,34.536,16.747,2.6,1.037,5.42,2.511,8.27,1.571,4.306-1.42,6.383-7.345,6.927-11.407C60.078,32.67,55.17,30.506,50.288,27.962ZM56.61,40.308c-.458,2.077-1.166,4.64-2.618,6.238-2.854,3.141-5.959,1.582-9.371.184-2.807-1.151-17.886-8.01-22.429-10.588-4.743-2.69-9.922-4.767-14.523-7.677-4.241-2.684-6.138-5.5-4.677-10.669.7-2.458,2.414-5.914,5.048-6.734,1.482-.462,3.574.233,5.028.581a36.117,36.117,0,0,1,6.074,2.085C25.423,16.476,31.027,20.5,37.177,23.5c5.09,2.483,10.393,4.769,15.2,7.789C55.733,33.405,57.515,36.206,56.61,40.308Z"/>
                <path class="cls-4" d="M37.817,26.391c-1.136-.665-2.306-1.272-3.474-1.874a60.522,60.522,0,0,0-5.938-3.045c-2.152-.822-4.665-1.559-6.592.119a9.623,9.623,0,0,0-2.062,2.55,10.439,10.439,0,0,0-1.1,3.41c-.514,3.633,2.73,5.6,5.543,7.087A79.278,79.278,0,0,0,34,38.969c1.537.611,3.2,1.481,4.878.926,2.54-.837,3.765-4.332,4.086-6.727.291-2.176-.947-3.895-2.622-5.133A28.365,28.365,0,0,0,37.817,26.391Zm3.6,7.516a8.3,8.3,0,0,1-1.544,3.679c-1.684,1.853-3.515.933-5.528.109-1.656-.679-8.513-3.51-11.226-5.227-2.5-1.583-3.621-3.245-2.759-6.292.41-1.45,1.424-3.488,2.977-3.972a6.335,6.335,0,0,1,2.966.342,21.408,21.408,0,0,1,3.583,1.23A35.981,35.981,0,0,1,33.54,25.76C36.741,27.614,42.477,29.107,41.419,33.907Z"/>
              </g>
              <g>
                <path class="cls-4" d="M34.245,42.2a103.03,103.03,0,0,1-5.03,9.45c-2.684,4.242-5.5,6.139-10.669,4.677-2.458-.7-5.914-2.413-6.734-5.047-.462-1.482.233-3.574.581-5.028a36.117,36.117,0,0,1,2.085-6.074c.864-1.976,1.862-3.881,2.908-5.761-.043-.016-.087-.029-.127-.048a3.1,3.1,0,0,1-1.522-1.379,57.446,57.446,0,0,0-5.165,9.7c-1.395,3.647-2.643,7.908.2,11.175a16.286,16.286,0,0,0,4.322,3.5,17.733,17.733,0,0,0,5.782,1.864c6.16.872,9.49-4.628,12.015-9.4.85-1.606,1.981-3.825,3.253-6.365A13.072,13.072,0,0,1,34.245,42.2Z"/>
                <path class="cls-4" d="M51.211,7.025C49.791,2.719,43.866.642,39.8.1,33.42-.758,31.256,4.151,28.712,9.033c-1.157,2.221-2.289,4.437-3.421,6.645.01,0,.02.006.031.011a8.078,8.078,0,0,1,1.547.979h0a95.329,95.329,0,0,1,5.174-9.721c2.112-3.359,4.913-5.141,9.015-4.236,2.077.458,4.64,1.166,6.238,2.618,3.141,2.854,1.582,5.959.184,9.371-.563,1.372-2.489,5.677-4.613,10.249a1.98,1.98,0,0,1,.413.061,1.449,1.449,0,0,1,1.516.746c2.4-5.026,4.316-9.133,4.844-10.461C50.677,12.69,52.151,9.875,51.211,7.025Z"/>
                <path class="cls-4" d="M30.668,18.408l.411.167a4.271,4.271,0,0,1,3.578-.673,8.3,8.3,0,0,1,3.679,1.544,2.983,2.983,0,0,1,.965,3.163,8.234,8.234,0,0,1,1.1,1.016,4.781,4.781,0,0,0,.247-3.178c-.837-2.54-4.332-3.765-6.727-4.086a5.023,5.023,0,0,0-4.342,1.7A5.582,5.582,0,0,1,30.668,18.408Z"/>
              </g>
            </g>
          </g>
        </g>
      </g>
    </g>
  </g>
</svg>
