<svg xmlns="http://www.w3.org/2000/svg" viewBox="0 0 85.688 74.239">
  <defs>
    <style>
      .cls-1 {
        isolation: isolate;
      }

      .cls-2 {
        fill: #fff;
      }

      .cls-3 {
        fill: #d7dbdb;
        mix-blend-mode: multiply;
      }

      .cls-4 {
        fill: #5d6f70;
      }
    </style>
  </defs>
  <title>medical-six</title>
  <g class="cls-1">
    <g id="Шар_2" data-name="Шар 2">
      <g id="BACKGROUND_1" data-name="BACKGROUND 1">
        <g>
          <path class="cls-2" d="M56.239,34.554A1.48,1.48,0,0,0,54.853,33.4c-1.843.039-7.665,2.3-8.947,1.283-.99-.789-.646-6.285-.885-7.806-.227-1.446-.405-2.781-1.776-3.528-1.8-.982-3.552.479-5.383.065a1.388,1.388,0,0,0-1.25.3c-.4-.32-1.056-.323-1.142.328a46.18,46.18,0,0,0,.055,12.434c-3.007-.109-5.994.028-9.01.187a1.367,1.367,0,0,0-1.276,1.4,37.426,37.426,0,0,0,.622,5.279A1.371,1.371,0,0,0,28,44.326c1.735-1.156,5.5-.911,7.556-1.133,2.691-.291,2.684-.3,3.047,2.659.273,2.235-.923,7.263,1.35,8.736,1.354.878,4.894.33,5.954-.848,1.013-1.126.651-2.573.5-3.916-.268-2.467-.637-4.946-.995-7.413,3.324-.35,6.548-1.245,9.9-1.447a1.519,1.519,0,0,0,1.468-1.521C56.7,37.464,56.507,36.769,56.239,34.554Z"/>
          <g>
            <path class="cls-3" d="M82.787,54.307c-.907-5.758-.8-11.9-2.334-17.507-.191-.7-.847,11.178-.308,18.227.391,5.1-3.922,6.608-7.833,7-4.132.414-31.908,4.18-40.833,4.667-7.446.406-17.242,2.929-24.5.833-.88-.254-.007,2.774.6,3.464,2.149,2.455,4.609,2.033,7.657,1.861,5.324-.3,10.634-.743,15.961-1,11.184-.542,21.99-3.257,33.119-4.324,5.05-.484,16.309,1.31,19.167-4.167C84.876,60.683,83.23,57.118,82.787,54.307Z"/>
            <path class="cls-3" d="M55.626,38.358a29.7,29.7,0,0,1-5.6.942c-2.019.179-4.746-.061-6.448,1.263-1.485,1.154-1.2,2.923-.825,4.574.325,1.418.863,2.751,1.086,4.192.264,1.7.183,3.385.9,4.974a.641.641,0,0,0,1.168-.068c.927-2.077.664-4.732.256-6.93-.142-.765-1.267-3.473-.906-4.2.314-.637,1.274-.617,1.908-.694,2.955-.361,7.3.239,9.753-1.683C58.019,39.864,56.9,37.993,55.626,38.358Z"/>
            <g>
              <path class="cls-2" d="M16.308,11.717c.007,0,.011.012.017.016C16.416,11.772,16.447,11.785,16.308,11.717Z"/>
              <path class="cls-2" d="M16.325,11.733c-.124-.054-.365-.16-.445-.18a4.394,4.394,0,0,0-1.607.054,20.62,20.62,0,0,0-2.983.6c-1.069.309-2.984,1.076-2.178,2.523.274.491,1.179.547,1.326-.1.187-.822,2.3-.929,2.992-1.027.984-.14,2.429-.107,3.067-1A.645.645,0,0,0,16.325,11.733Z"/>
            </g>
            <path class="cls-2" d="M33.978,1.69c-5.3.68-10.6,2.819-8.158,9.205.231.6,1.031.3,1.019-.271-.112-5.126,2.534-6.279,7.389-6.893,4.694-.594,10.961-2.446,13.514,2.738a.639.639,0,0,0,1.2-.234C49.964-1.329,38.034,1.17,33.978,1.69Z"/>
            <path class="cls-2" d="M68.187,6.929a2.231,2.231,0,0,0-1.394-.045c-1.41.216-2.821.48-4.252.588a11.166,11.166,0,0,0-3.734.735.52.52,0,0,0,.082.995,21.854,21.854,0,0,0,5.787.046c1.259-.116,3.135-.131,3.824-1.361A.644.644,0,0,0,68.187,6.929Z"/>
            <path class="cls-2" d="M79.812,22.527c-.711-4.312,1.355-12.047-3.167-13.5-4.747-1.525-14.09,1.286-18.912,1.7-7.535.645-14.94,1.208-22.426,2.37-7.326,1.138-14.61,1.34-21.96,2.1-3.585.371-9.6-.423-11.368,3.329-.94,1.995.226,5.424.331,7.546.178,3.551.317,7.1.673,10.643.524,5.2.01,12.088,2.189,17,.361.813,1.261,5.4,1.14,4.639-.6-3.737-.6-14.73-.833-18.5-.345-5.545-.253-9.144-.309-14.712-.009-.883-.346-2.865.15-3.668.965-1.562,3.414-2.43,5.084-2.9,2.752-.767,5.879-.662,8.719-.789a153.739,153.739,0,0,0,16.291-1.7c10.305-1.567,20.654-1.938,30.988-3.185,3.538-.426,7.1-1.01,9.45,2.561A15.574,15.574,0,0,1,77.866,22.3c.732,6.284,2.887,16.644,3.946,22.9.194,1.143-.158-2.794,0-3.834C82.808,34.8,80.9,29.109,79.812,22.527Z"/>
            <g>
              <path class="cls-4" d="M57.067,33.216a1.32,1.32,0,0,0-.1-.685.9.9,0,0,0-.821-.4q-5.181.338-10.355.774c-.095-.794-.184-1.589-.293-2.381q-.292-2.139-.635-4.272c-.107-.665-.244-1.326-.34-1.99a10.059,10.059,0,0,0-.208-1.454,1.206,1.206,0,0,0-.543-.777,3.731,3.731,0,0,0-1.646-.078c-.647.014-1.293.04-1.939.082a32.232,32.232,0,0,0-3.844.463c-.638.12-1.95.211-1.986,1.095a78.421,78.421,0,0,0,.362,10.472c-.783.094-1.568.182-2.35.289q-2.14.293-4.273.635c-.664.107-1.325.244-1.99.34a10.059,10.059,0,0,0-1.454.208,1.211,1.211,0,0,0-.777.543,3.76,3.76,0,0,0-.078,1.646q.021.971.082,1.939a32.071,32.071,0,0,0,.464,3.845c.12.637.21,1.949,1.094,1.985a78.8,78.8,0,0,0,10.62-.376c.123.916.247,1.831.363,2.748.171,1.353.332,2.707.473,4.064q.108,1.032.2,2.066c.075.864.075,1.625,1.026,1.958,1.227.431,2.566-.091,3.789-.268a29.186,29.186,0,0,1,4.733-.463,1.32,1.32,0,0,0,.685-.1.9.9,0,0,0,.4-.82q-.342-5.257-.786-10.508c.925-.122,1.85-.245,2.776-.362,1.353-.171,2.708-.332,4.064-.473q1.032-.108,2.067-.2c.863-.075,1.624-.075,1.958-1.026.431-1.227-.091-2.565-.268-3.789A29.075,29.075,0,0,1,57.067,33.216Zm-12.8,8.331c.478,3.61,1.078,7.927,1.4,11.552-1.407.115-2.81.264-4.2.488a17.127,17.127,0,0,0-2.418.44,27.39,27.39,0,0,0-.2-2.909c-.168-2.468-.376-4.933-.574-7.4a9.249,9.249,0,0,0-.2-1.342.2.2,0,0,0-.127-.014c-2.225.273-5.272.626-7.494.928-.909.123-1.819.249-2.725.4a3.334,3.334,0,0,0-1.267.3,34.331,34.331,0,0,0-.749-7.1,37.071,37.071,0,0,0,4.7-.053q2.855-.124,5.7-.306a1.845,1.845,0,0,0,.771-.136c.772-.351.436-1.812.333-2.639q-.192-1.553-.408-3.1-.421-3.024-.945-6.034a34.468,34.468,0,0,0,7.1-.749c-.1,3.824.579,11.622.6,11.717,3.654-.482,7.71-1.07,11.379-1.4.114,1.407.264,2.81.488,4.2a17.136,17.136,0,0,0,.439,2.417C52.22,41.051,44.4,41.522,44.262,41.547Z"/>
              <path class="cls-4" d="M85.65,62l-.019-.163c-.347-2.8-.933-5.581-1.25-8.4-.412-3.672-.758-7.351-1.143-11.026q-.382-3.693-.764-7.386c-.5-4.309-1.008-8.617-1.413-12.935-.252-2.686-.413-5.38-.589-8.071a14.405,14.405,0,0,0-.508-3.78c-1.123-3.26-5.217-2.634-7.959-2.447-.762.052-1.522.131-2.282.212a2.508,2.508,0,0,0-1.028-2.019c-1.44-.944-4.045-.38-5.657-.257-1.8.138-5.9,1.32-5.252,3.687l-6.433.662c.031-2.942-.273-6.825-2.542-8.716C45.983-.993,39.647.355,36.4.66,33.523.931,28.16.72,25.812,2.773c-2.56,2.239-.76,7.035-.312,9.97l-4.167.43c-.5.051-1.007.085-1.511.131a2.623,2.623,0,0,0-1.088-2.313c-1.239-.859-3.042-.513-4.427-.349-2.4.283-7.778.8-6.412,3.871-.193.031-.387.056-.58.088-1.516.253-3.09.459-4.581.848A3.234,3.234,0,0,0,.037,19.1L0,19.106c.03.19.057.375.087.563a15.427,15.427,0,0,0,.346,2.358c.077.567.157,1.135.213,1.688l2.078,20.17Q3.714,53.491,4.7,63.1c.229,2.228.375,4.53.583,6.785S6.37,74.109,8.9,74.223a48.715,48.715,0,0,0,6.831-.527c3.711-.356,7.413-.782,11.121-1.166l20.169-2.086,19.209-1.988c3.3-.341,6.619-.391,9.918-.732a46.975,46.975,0,0,0,5.654-.817C84.28,66.334,85.967,64.642,85.65,62ZM60.748,7.913a11.631,11.631,0,0,1,2.51-.557,18.975,18.975,0,0,1,3.5-.6A2.069,2.069,0,0,1,68.71,8.073a.347.347,0,0,1,.016.041c-2.673.315-5.336.734-8.013,1L59.6,9.231A1.712,1.712,0,0,1,60.748,7.913ZM28.275,3.663c1.547-.9,4.7-.747,6.516-.973a69.217,69.217,0,0,1,8.618-.632,12.916,12.916,0,0,1,2.677.129c2.555.374,2.584,2.662,2.99,4.856a14.366,14.366,0,0,1,.085,3.263l-1.613.166c.188-1.888.208-5.035-1.4-6.166-2.4-1.688-7.6-.753-10.314-.572-2.393.16-6.316.195-7.883,2.462-1.163,1.684-.575,4.423.376,6.256l-1.308.135C26.744,9.666,25.332,5.381,28.275,3.663Zm1.583,4.068c1.2-2.137,4.979-1.891,7.269-2,1.706-.079,6.242-.788,7.427.751.575.748.534,3.229.55,4.238l-4.561.47-11,1.133C29.661,10.745,29.056,9.151,29.858,7.731ZM9.225,13.863c.453-.99,1.889-1.063,2.763-1.192.928-.136,1.843-.293,2.764-.472A5.86,5.86,0,0,1,17.5,11.96c.715.244.875.83,1.023,1.456-2.146.178-4.295.338-6.439.543-.963.092-1.923.217-2.881.354A1.456,1.456,0,0,1,9.225,13.863Zm73.1,49.626a3.145,3.145,0,0,1-2.51,1.234c-4.289.363-8.566.951-12.855,1.393l-20.17,2.078-19.21,1.979c-2.744.282-13.821,1.521-16.648,1.561a4.911,4.911,0,0,1-1.776-.213c-1.822-.672-1.577-3.153-1.749-4.715a30.923,30.923,0,0,0-.364-3.3L6.659,60c-.248-2.251-.46-4.507-.693-6.761-.33-3.189-.66-6.378-.992-9.588-.7-6.79-1.518-13.567-2.072-20.371q-.126-1.557-.253-3.113c-.083-1.011.007-2.205,1.011-2.736,1.507-.8,3.569-.673,5.222-.806,3.915-.315,7.816-.692,11.724-1.1l20.169-2.086,19.209-1.988c3.152-.326,6.306-.634,9.46-.948,1.6-.16,3.2-.337,4.809-.488,1.179-.11,2.381.022,3.022,1.165a10.039,10.039,0,0,1,.871,3.9l2.078,20.17q.736,7.146,1.472,14.291A106.989,106.989,0,0,1,82.706,61.6,3.659,3.659,0,0,1,82.328,63.489Z"/>
            </g>
          </g>
        </g>
      </g>
    </g>
  </g>
</svg>
