<svg xmlns="http://www.w3.org/2000/svg" viewBox="0 0 37.367 68.742">
  <defs>
    <style>
      .cls-1 {
        isolation: isolate;
      }

      .cls-2 {
        fill: #d7dbdb;
        mix-blend-mode: multiply;
      }

      .cls-3 {
        fill: #fff;
      }

      .cls-4 {
        fill: #5d6f70;
      }
    </style>
  </defs>
  <title>medical-seven</title>
  <g class="cls-1">
    <g id="Шар_2" data-name="Шар 2">
      <g id="BACKGROUND_1" data-name="BACKGROUND 1">
        <g>
          <path class="cls-2" d="M34.558,47.455c-.637-4.63-1.9-8.922-2.19-13.656a1.2,1.2,0,0,0-1.886-.824c-6.734,5.769-18.741,5.108-26.763,2.517a10.132,10.132,0,0,0-.5-1.1.541.541,0,0,0-1.026.3c.026.16.044.321.067.482a1.219,1.219,0,0,0-.21,2.318c.154.057.319.106.476.161.174,2.435.135,4.9.107,7.32s-.8,6.077.389,8.426c.913,1.807,2.66,2.579,4.472,3.189A34.313,34.313,0,0,0,20.11,58.7c4.19-.268,10.715-1.956,13.41-5.568C34.846,51.354,34.853,49.6,34.558,47.455Z"/>
          <g>
            <path class="cls-2" d="M34.041,40.255a41.838,41.838,0,0,0-2.992-10.162c-1.617-3.619-5.559-7.385-5.089-11.632.087-.791-.4-1.886-1.4-1.745-4.57.641-8.66,1.933-13.355,2.355a.668.668,0,0,0-.135,1.31c4.443,1.419,7.939.132,12.106-.609a13.724,13.724,0,0,0,2.235,6.182A42.793,42.793,0,0,1,31.2,42.577c.5,3.711.988,7.429,1.39,11.15.533,4.933-.212,7.03-4.85,8.878a26.181,26.181,0,0,1-7.364,1.766c-3.144.272-8.239.354-11.274.989-.722.151.86.042,1.47.551,5.843,4.877,23.909,1.027,25.472-7.656C37.024,52.792,34.939,45.614,34.041,40.255Z"/>
            <path class="cls-2" d="M26.96,9.578c-.444-1.343-.45-2.786-.969-4.108a.7.7,0,0,0-1.281-.011c-.022.056-.029.109-.049.165a.93.93,0,0,0-.873.272,1.5,1.5,0,0,0-.727-.181c-2.073.006-1.871,2.93-1.411,5.3.024,1.872-.111,3.943,1.022,5.368a.514.514,0,0,0,.8.062,4.062,4.062,0,0,0,.413-.682.665.665,0,0,0,.6-.176,2.274,2.274,0,0,0,.229-.279.532.532,0,0,0,.615.342,2.005,2.005,0,0,0,1.309-1.3,1.307,1.307,0,0,0,1.218-1.033C28.169,12.049,27.347,10.749,26.96,9.578Z"/>
            <path class="cls-3" d="M25.68,2.427a.384.384,0,0,0-.164-.595c-.1-.036-.2-.051-.3-.083C23.525-.1,19.743.516,17.535.787A60.093,60.093,0,0,0,9.69,1.829c-2.876.761-3.3,2.406-2.429,3.7a.635.635,0,0,0-.909.457,19.732,19.732,0,0,0-.31,5.124C6.15,12.8,6,15.174,7.162,16.5A.975.975,0,0,0,8.7,16.392a3.264,3.264,0,0,0,.3-.965,6.032,6.032,0,0,0,1.149,2.33c.312.371.812.114.96-.249.665-1.624.121-3.415-.153-5.078-.283-1.718-.541-3.447-.726-5.18a5.535,5.535,0,0,0,2.05-.046.826.826,0,0,0,.488-.319c.113-.006.217,0,.333-.011a.518.518,0,0,0,.047-1.022,8.884,8.884,0,0,1-1.377-.432c-.107-.058-.209-.124-.323-.173a1.3,1.3,0,0,0-.182-.064c1.853-.825,4.457-.783,6.21-.988,1.559-.182,3.373-.172,5.044-.471a8.2,8.2,0,0,0,2.6.013A.911.911,0,0,0,25.68,2.427ZM8.6,6.7c-.041.194-.07.386-.1.579a.887.887,0,0,0-.638.051c-.032-.373-.056-.746-.067-1.12a.609.609,0,0,0-.023-.1A4.282,4.282,0,0,0,8.6,6.7Z"/>
            <path class="cls-3" d="M11.3,18.854a.746.746,0,0,0-1.46-.185C8.023,23.288,3.554,26.088,1.82,30.648c-1.3,3.428-.968,7.467-.576,11.03C1.668,45.528,2.5,49.3,3.206,53.1c.358,1.92.609,3.863.958,5.781,0,.163.024.325.035.488a2.013,2.013,0,0,0-.5,1.366,4.474,4.474,0,0,0,.211,2.2.69.69,0,0,0,1.252.07l.008-.023c.146.457.3.911.483,1.359.657,1.613,3.342.781,2.923-.932C7.871,60.519,7.2,57.494,6.6,54.43c-.289-2.744-.452-5.505-.6-8.183-.416-7.5-.465-14.016,3.465-20.635a.442.442,0,0,0,.043-.351l.022-.033A9.826,9.826,0,0,0,11.3,18.854Z"/>
            <path class="cls-4" d="M28.254,14.166a2.4,2.4,0,0,0,.042-.8c-.087-1.325-.322-2.659-.418-3.993-.121-1.679.133-3.881-.518-5.543.17-1.4-1.07-2.39-2.306-2.975C22.835-.195,20.3-.038,17.913.1,15.681.225,5.052.611,4.8,4.506,4.152,6.039,4.467,8,4.658,9.6c.257,2.156.347,4.773,1.291,6.743A.657.657,0,0,0,6.4,16.7a5.842,5.842,0,0,0,1.489,1.25,12.731,12.731,0,0,1-2.826,5.885c-.91.971-2.015,1.755-2.855,2.793C.482,28.762.17,30.943.05,33.627c-.419,9.394,1.934,18.664,1.965,28.03a.426.426,0,0,0,.033.5c.016.023.035.043.052.066a1.029,1.029,0,0,0,.355.457c5.9,7.469,20.954,7.414,28.063,3.2,1.987-1.177,6.93-4.253,6.848-5.418-.575-8.226-1.2-16.7-2.908-24.787-.6-2.838-1.185-5.843-2.778-8.316a30.314,30.314,0,0,0-3.6-3.935c-1.875-2.03-2.151-3.983-2.836-6.318a7.38,7.38,0,0,0,2.838-2.289A.943.943,0,0,0,28.254,14.166ZM8.688,3.063c3.831-1.329,7.415-1.387,11-1.532,1.032-.042,4.628.018,5.009,1.287.557,1.853-2.345,2.1-3.443,2.3a52.672,52.672,0,0,1-10.3.71c-1.077.03-3.164-.011-3.765-.911C6.67,4.137,8.006,3.3,8.688,3.063Zm15.084,7.468c.126,1.5-.164,3.411.427,4.863a12.9,12.9,0,0,1-2.366.864c-.016-.11-.036-.219-.053-.318-.114-.666-.293-1.319-.363-1.992-.034-.329-.578-.273-.578.053,0,.61.094,1.21.136,1.818.013.193-.009.426-.007.652a33.792,33.792,0,0,1-4.7.64,17.125,17.125,0,0,1-2.546-.007A20.74,20.74,0,0,0,12.714,7.91c0-.007-.009-.009-.011-.015a52.738,52.738,0,0,0,6.824-.354,15.177,15.177,0,0,0,.316,2.618,6.91,6.91,0,0,0,.967,3.03.247.247,0,0,0,.414-.1,9.928,9.928,0,0,0-.232-3.04c-.071-.9-.158-1.8-.23-2.7.323-.05.65-.089.97-.148.461-.084,1-.188,1.56-.316C23.04,8,23.692,9.574,23.772,10.531Zm-10.841,6.49a16.306,16.306,0,0,1-2.111-.4,53.646,53.646,0,0,0-.657-8.784c.25.011.49.02.7.028.459.016.927.013,1.39.02-.007.024-.026.037-.026.066-.047,1.851.04,3.745.172,5.591A12.771,12.771,0,0,0,12.931,17.021ZM6.607,9.981A25.721,25.721,0,0,1,6.5,7.148a8.441,8.441,0,0,0,2.726.629c.113,1.581.329,3.144.5,4.725a30.223,30.223,0,0,0,.414,3.927A26.607,26.607,0,0,1,7.392,15.42,42.237,42.237,0,0,0,6.607,9.981ZM34.9,59.962c-6.561,5.921-21.508,9.421-30.8,2.464a1.062,1.062,0,0,0,.143-.538c.015-2.1-.1-4.209-.273-6.314,4.4,3.362,9.914,4.4,15.455,3.888,4.663-.43,11.379-2,15.06-5.691C34.626,55.854,34.755,57.925,34.9,59.962Zm-.6-8.7c-8.6,6.93-20.962,8.966-30.506,2.406-.619-6.3-1.638-12.6-1.385-18.894,7.554,5.944,21.873,4.293,29.1-1.81A91.679,91.679,0,0,1,34.3,51.263Zm-3.465-20.13c-7,5.7-20.937,8.07-28.346,2.234.007-.088.009-.176.016-.264.406-5.2,3.506-6.075,5.916-9.938a5.769,5.769,0,0,0,1.127-4.472,18.793,18.793,0,0,0,6.928.559,27.469,27.469,0,0,0,7.606-1.626C23.624,23.217,28.621,26.272,30.839,31.133ZM26.332,9.306c.106,1.343.263,2.726.313,4.086a1.075,1.075,0,0,0-.333.321,4.334,4.334,0,0,1-1.032,1.031,45.421,45.421,0,0,0-.5-4.516c-.07-1.116.284-2.625-.226-3.7a6.821,6.821,0,0,0,1.181-.518C25.94,7.147,26.252,8.292,26.332,9.306Z"/>
          </g>
        </g>
      </g>
    </g>
  </g>
</svg>
