<svg xmlns="http://www.w3.org/2000/svg" viewBox="0 0 116.386 107.992">
  <defs>
    <style>
      .cls-1 {
        isolation: isolate;
      }

      .cls-2 {
        fill: #fff;
      }

      .cls-3 {
        fill: #d7dbdb;
        mix-blend-mode: multiply;
      }

      .cls-4 {
        fill: #5d6f70;
      }
    </style>
  </defs>
  <title>medical-eight</title>
  <g class="cls-1">
    <g id="Шар_2" data-name="Шар 2">
      <g id="BACKGROUND_1" data-name="BACKGROUND 1">
        <g>
          <path class="cls-2" d="M109.123,58.655c-.225-2.521-2.652-5.217-5.258-3.822a3.3,3.3,0,0,0-1.425,1.457c-7.269.454-12.227,3.223-11.894,11.634.177,4.488.689,10.1.355,15.524-.074.876-.142,1.753-.237,2.627q-.153,1.273-.391,2.511A22.587,22.587,0,0,1,84.16,99.63a.291.291,0,0,0-.082.209A15.08,15.08,0,0,1,80.236,102c-9.224,3.557-22.249,1.8-29.464-4.919-3.519-3.277-7.341-7.2-9.8-11.345A38.248,38.248,0,0,1,37.3,75.779c-.757-2.942-.508-5.948-1.308-8.833a20.833,20.833,0,0,0,2.485-1.015,13.55,13.55,0,0,0,6.84-4.356,10.281,10.281,0,0,0,1.336-2.091c.38-.461.745-.926,1.073-1.4,1.888-2.72,5.988-10.489-.133-10.744a1.341,1.341,0,0,0-1.4,1.184c-.674,3.489-.573,7-2.159,10.078a22.683,22.683,0,0,1-6.665,4.986,16.631,16.631,0,0,1-6.58.034.858.858,0,0,0-.665-1.093c-6.188-1.63-8.567-7.407-11.474-12.7-.64-1.166-2.125-.226-2.148.8v.019A2.165,2.165,0,0,0,13.59,52.72c-.164,2.282,2.642,5.692,3.859,7.287,2.581,3.385,6.043,6.371,10.247,7.445a12.637,12.637,0,0,0,3.007.376,40,40,0,0,1,2.7,4.319,17.189,17.189,0,0,0,1.247,2.8,1.152,1.152,0,0,0,.137.167c.077.463.168.924.29,1.379.564,2.106,1.123,4.264,1.864,6.318,1.891,5.241,5.591,9.29,9.284,13.348,6.992,7.683,14.525,9.949,24.776,9.866,10.031-.081,17.105-3.884,20.712-13.551a41.356,41.356,0,0,0,2.147-16.06c-.114-3.234-1.151-7.187-.891-10.569,2.65-2.013,4.826-5.507,7.822-6.9.4-.037.795-.067,1.191-.086-.4,3.946,5.581,6.3,6.909,1.886A3.391,3.391,0,0,0,109.123,58.655Z"/>
          <g>
            <path class="cls-3" d="M15.534,48.729c-.153-.631-.44-.63-.959-.851s-.559-.044-1.045-.568a5.892,5.892,0,0,1-.763-1.3C11.278,43.132,9.691,40.3,8.2,37.424c-.277-.535-1.013-.116-.905.4a39.762,39.762,0,0,0,3.626,9.322c.753,1.537,2.311,4.051,4.261,2.575A1.03,1.03,0,0,0,15.534,48.729Z"/>
            <path class="cls-3" d="M50.011,44.944c-.242-.436-.672-.613-.888-1A4.431,4.431,0,0,1,49,41.809c.079-2.092-.126-4.185.006-6.276a.565.565,0,0,0-1.1-.174c-.212.93-2.285,12.548,1.781,10.394A.625.625,0,0,0,50.011,44.944Z"/>
            <path class="cls-3" d="M51.6,48.165a.53.53,0,0,0-.97-.022c-.842,1.793-.9,3.789-1.591,5.66a20.378,20.378,0,0,1-3.4,5.856,27.805,27.805,0,0,1-10.211,7.37c-.507.232-.376,1.13.242,1.01a20.535,20.535,0,0,0,12.527-8.38C50.343,56.693,52.968,51.9,51.6,48.165Z"/>
            <path class="cls-3" d="M110.483,57.439a1.111,1.111,0,0,0-2.033-.082c-.451,1.006-.606,1.8-1.739,2.229a4.12,4.12,0,0,1-4.033-.83.725.725,0,0,0-1.106.741C103.175,64.188,111.857,62.308,110.483,57.439Z"/>
            <path class="cls-3" d="M114.267,59.979a1.168,1.168,0,0,0-2.24.034c-.917,5.337-9.937,6.94-11.452,1-.194-.764-1.223-.525-1.289.179C98.428,70.36,115.812,68.333,114.267,59.979Z"/>
            <path class="cls-2" d="M21.539,4.6a.671.671,0,0,0-.878-.979C14.9,6.564,6.954,5.811,2.343,10.874A9.541,9.541,0,0,0,.334,14.393a25.355,25.355,0,0,1,.9,4.255c.128.854.392,1.733.605,2.614.339-1.917.2-3.951.733-5.823C3.551,12.005,6.1,10.448,9.325,9.28,13,7.95,17,7.335,20.394,5.362a5.636,5.636,0,0,0,.5,1.25c.317.547,1.338.29,1.233-.383A6.18,6.18,0,0,0,21.539,4.6Z"/>
            <path class="cls-2" d="M29.252,3.932a4.9,4.9,0,0,1-.026-1.2c.1-.454-.571-.668-.816-.318a3.09,3.09,0,0,0-.74,2,1.512,1.512,0,0,0,.749,1.463.518.518,0,0,0,.675-.211A2.938,2.938,0,0,0,29.252,3.932Z"/>
            <path class="cls-2" d="M49.651,5.31c-1.839-1.529-5.873-2-8.159-2.313-3.745-.509-8.232-1.573-11.9-.552-.563.157-.336.888.108,1.007C34.778,4.815,46.56,2.8,48.9,8.435c1.946,4.683,1.843,10.313,3,15.125.149.62-.8.635-.667.111C52.42,19.005,53.861,8.811,49.651,5.31Z"/>
            <path class="cls-2" d="M31.2,67.58c-3.293-1.086-6.457-.855-9.245-3.3a25.176,25.176,0,0,1-4.123-4.858c-.865-1.274-3.02-3.8-3.248-5.317-.254-1.7,2.548-2.3,3.845-3.4a.748.748,0,0,0-.536-1.262c-1.632.16-5.01.951-5.931,2.444-1.159,1.88,1.155,4.614,2.009,6.1,3.5,6.077,9.247,13.946,17.277,11.041A.757.757,0,0,0,31.2,67.58Z"/>
            <path class="cls-2" d="M52.41,46.893c-1.738-1.328-6.666-2.957-8.206-.68-1.112,1.644-.35,4.729-.658,6.634-.614,3.794-1.879,6.536-5.232,8.453-2.112,1.207-4.058,1.215-6.291,1.962-.511.171-2.694-.127-2.122.048,4.753,1.457,12.09-.066,14.5-4.346a18.44,18.44,0,0,0,1.939-8.282c.039-1.185-.405-2.445.707-2.876.874-.338,3.138.633,3.842,1.171C52.213,49.986,53.729,47.9,52.41,46.893Z"/>
            <path class="cls-2" d="M107.819,55.572c-.595-3.339-7.536-1.38-6.608,2.07.131.487.729.457,1.024.181.834-.776,1.288-1.644,2.58-1.7.975-.046,1.748.436,2.708.062A.562.562,0,0,0,107.819,55.572Z"/>
            <path class="cls-2" d="M98.672,54.85a.613.613,0,0,0,1.163.327c1.9-4.22,5.525-3.278,8.759-1.163a13.2,13.2,0,0,1,3.433,3.176c.629.856,1,1.972,1.917,2.561a.668.668,0,0,0,.9-.234C118.13,54.467,99.522,43.46,98.672,54.85Z"/>
            <path class="cls-2" d="M99.1,56.417c-11.095-2-10.594,20.386-8.815,26.439a.522.522,0,0,0,.955.046c1.8-3.523.852-8.23,1.007-12.041.256-6.283,1.022-10.612,6.961-13.437A.528.528,0,0,0,99.1,56.417Z"/>
            <path class="cls-2" d="M86.034,97.08c-8.17,5.225-14.981,7.524-24.689,5.421A27.182,27.182,0,0,1,43.356,88.814c-.2-.387-.826-.195-.66.242,3.358,8.849,11.207,14.665,20.457,16.223,7.589,1.278,19.828.54,23.511-7.66A.433.433,0,0,0,86.034,97.08Z"/>
            <path class="cls-4" d="M10.034,50.556a.589.589,0,0,0-.15.471c1.36,8.3,11.442,20.968,21.028,19.087,1.039,9.9,7.17,20.63,13.7,27.806,6.719,7.381,17.067,10.36,26.86,10.05,10.578-.334,17.981-5.228,21.017-15.348a48.921,48.921,0,0,0,1.924-13.958c.026-5.273-.675-11.97,2.7-15.8,1.259,4.279,6.362,6.181,10.6,5.821,5.252-.445,9.067-4.489,8.635-9.894-.443-5.551-5.029-10.683-10.771-10.679-3.815,0-9.437,2.87-9.171,7.29-4.64,1.025-7.525,6.007-7.969,11.126-.8,9.251,2.109,18.32-2.325,27.121-6.067,12.041-22.739,9.636-32.01,3.608C43.742,90.517,39.435,80.342,37.9,68.527c4.936-.657,9.073-5.3,11.348-9.423,1.233-2.231,5.4-9.967,3.12-12.7-.095-.487-.912-.74-1.506-.871,1.194-12.045,4.178-27.344,1.664-37.561-.929-3.775-3.962-5.261-7.646-5.817C40.817,1.539,35.422.471,31.2,1.387a.978.978,0,0,0-.355-.946c-1.117-.874-2.949-.327-3.889.581A4.229,4.229,0,0,0,25.8,4.313c.111,2.329,1.96,4.867,4.549,4.142A1.165,1.165,0,0,0,31.3,7.2c-.007-.431,0-.858.02-1.283a31.564,31.564,0,0,1,8.656.834c6.024,1.475,7.17,4,7.412,9.556A140.28,140.28,0,0,1,45.44,44.279c-.392-.085-.784-.17-1.181-.238a.873.873,0,0,0-.924.379.593.593,0,0,0-.444.6c-.03,5.3-.545,12.259-5.69,15.21-9.088,5.213-14.675-5.645-17.769-12.065a.68.68,0,0,0-.734-.836,7.494,7.494,0,0,0-2.577.69A121.76,121.76,0,0,1,7.06,23.968c-1.31-5.4-2.649-9.291,2.729-12.38A40.735,40.735,0,0,1,19.23,7.623c.133.4.262.812.375,1.228a1.166,1.166,0,0,0,1.259.947c2.687-.022,3.759-2.974,3.22-5.242a4.225,4.225,0,0,0-2.025-2.84c-1.155-.612-3.067-.629-3.9.521a.975.975,0,0,0-.079,1.007c-4.309.292-9.2,2.815-12.924,4.53C1.774,9.331.02,10.79,0,14.678-.061,26.742,6.411,39,10.942,49.872c-.088.032-.177.061-.265.094A1.078,1.078,0,0,0,10.034,50.556ZM20.079,3.632a1.44,1.44,0,0,1,.971.109A2.045,2.045,0,0,1,21.9,5.048,2.229,2.229,0,0,1,21.422,7.3C21.014,6.062,20.542,4.847,20.079,3.632Zm9.312-1.318c-.108,1.3-.224,2.594-.273,3.894a2.233,2.233,0,0,1-1.082-2.029,2.048,2.048,0,0,1,.453-1.491A1.433,1.433,0,0,1,29.391,2.314ZM14.19,48.735c-.6.2-1.2.414-1.8.622C9.084,40.5,4.7,32.26,2.571,23.025c-.543-2.354-1.811-6.257-1.35-8.646.655-3.4,3.825-4.4,6.491-5.531C11.225,7.357,14.86,5.929,18.328,4.32a11.356,11.356,0,0,0,.446,1.886c-5.711,2.2-14.86,4.571-14.8,11.571C4.013,22.34,6.4,27.794,7.925,32.039,9.946,37.656,11.486,43.4,14.19,48.735Zm35.2-3.521c-.656-.15-1.31-.309-1.963-.471,1.276-6.11,1.123-12.307,1.522-18.512.289-4.5.81-11.206-.537-15.566C46.9,5.766,37.578,3.8,31.359,4.424a11.445,11.445,0,0,0-.094-1.935c3.777.583,7.666.946,11.455,1.4,2.876.347,5.926.527,7.5,3.61,1.106,2.167,1.04,5.839,1.173,8.252C51.931,25.587,50.047,35.419,49.394,45.214ZM99.063,61.279a8.4,8.4,0,0,1,.82-.443c.17,2.015,3.888,3.66,5.5,3.818a5.516,5.516,0,0,0,6.131-5.429,6.921,6.921,0,0,0-6.371-7.033c-1.793-.079-4.822,1.2-4.874,3.248a9.3,9.3,0,0,0-2.335-.23c1.686-2.519,3.092-4.592,6.684-4.842,3.988-.278,7.483,2.682,8.759,6.333C116.992,67.046,100.653,70.819,99.063,61.279Zm-86.935-9.23c1.322-.5,2.665-.942,3.969-1.484a16.018,16.018,0,0,0,1.764-.8c2.171,7.682,9.118,15.435,17.78,13.412,7.07-1.652,9.475-10.4,8.879-16.969,1.525.31,3.033.7,4.563.985a10.677,10.677,0,0,0,1.8.282c-1.371,7.088-4.255,13.475-9.81,17.639-1.2.9-5.611,2.658-5.489,3.613,1.369,10.652,4.932,19.947,13.242,27.151,6.988,6.056,16.288,9.222,25.428,7.371,8.242-1.669,14.492-7.277,16.13-15.628,1.709-8.712-4.82-32.408,10.164-30.448.827.108.9-1.034,1.189-1.556a3.536,3.536,0,0,1,1.557-1.5,3.371,3.371,0,0,1,2.817.07,5.352,5.352,0,0,1,3.157,4.9,4.136,4.136,0,0,1-.058.508,3.425,3.425,0,0,1-3.454,2.79,3.833,3.833,0,0,1-3.813-2.887c-.11-.421-.322-.748-.817-.7-7.767.84-8.341,8.4-8.57,14.82-.357,10.024.334,24.986-10.463,30.094-11.413,5.4-27.317,2-35.846-7.086A48.475,48.475,0,0,1,36.823,82c-1.769-4.306-2.484-8.937-4.192-13.239-.347-.873-5.36-.678-7.354-1.453a20.376,20.376,0,0,1-7.025-5.293,27.45,27.45,0,0,1-4.888-7.309C12.9,53.683,12.583,52.837,12.128,52.049Z"/>
          </g>
        </g>
      </g>
    </g>
  </g>
</svg>
