<svg xmlns="http://www.w3.org/2000/svg" viewBox="0 0 57.058 80.885">
  <defs>
    <style>
      .cls-1 {
        isolation: isolate;
      }

      .cls-2 {
        fill: #d7dbdb;
        mix-blend-mode: multiply;
      }

      .cls-3 {
        fill: #fff;
      }

      .cls-4 {
        fill: #5d6f70;
      }
    </style>
  </defs>
  <title>medical-two</title>
  <g class="cls-1">
    <g id="Шар_2" data-name="Шар 2">
      <g id="BACKGROUND_1" data-name="BACKGROUND 1">
        <g>
          <path class="cls-2" d="M47.519,40.873a3.971,3.971,0,0,0-2.45,1.075,7.5,7.5,0,0,0-2.259,2.36.688.688,0,0,0,.838.94,9.563,9.563,0,0,0,2.688-1.663c.532-.366,1.18-.607,1.671-1.019A.964.964,0,0,0,47.519,40.873Z"/>
          <path class="cls-2" d="M42.273,39.785c-.983-4.248-3.87-8.195-6.352-11.719-1.858-2.64-3.682-5.4-5.7-7.917-1.229-1.533-3.093-3.017-4.243-4.741.907-.385,1.8-.834,2.663-1.237a13.323,13.323,0,0,0,3.428-2.084c.981-.892-.245-2.474-1.295-1.626-1.625,1.313-4.011,1.985-5.763,3.242a.75.75,0,0,0-1.075.308,3.049,3.049,0,0,0-.231.942c-.028.038-.064.067-.092.106a.7.7,0,0,0,.162.924c.528,2.382,3.379,4.658,4.637,6.4,4.2,5.823,7.363,12.669,11.723,18.277C40.817,41.54,42.555,41,42.273,39.785Z"/>
          <path class="cls-2" d="M33.089,70.928c-1.515-1.123-4.271-.494-5.925-.535-2.033-.05-4.116-.413-6.053.329-.416.159-.633.8-.146,1.044,2.549,1.277,5.823,1.35,8.633,1.386,1.923.025,1.9.129,2.608,1.933.573,1.465.766,2.747,2.1,3.644a.916.916,0,0,0,1.325-.554C36.145,76.379,34.718,72.136,33.089,70.928Z"/>
          <path class="cls-2" d="M44.921,59.373a15.034,15.034,0,0,0-3.22-.149.869.869,0,0,0-1.173-.063c-.082-.009-.166-.015-.248-.027-.428-.066-.686.366-.643.742C32.469,65.685,24.9,65.942,16.45,62.409a.418.418,0,0,0-.549.581c2.21,3.947,10.448,4.483,14.293,4,3.434-.43,9.846-2.378,11.649-5.891a6.253,6.253,0,0,0,2.907.123C45.592,61.041,45.934,59.6,44.921,59.373Z"/>
          <path class="cls-3" d="M31.5,4.908c-3.174.708-5.894,3.379-8.757,4.928A2.685,2.685,0,0,0,22.783,7.9a11.381,11.381,0,0,1-.548-4.018c.133-.9.46-.711,1.269-.906a.545.545,0,0,0,.411-.748,2.081,2.081,0,0,0-3.294-.342,4.351,4.351,0,0,0-.841,3.025c.011,1.6.137,4.976,2.111,5.368-1.885.9-4.175,1.8-4.926,3.815-.189.509.336.87.779.813,2.117-.275,4.168-2.019,6-3.055a65.472,65.472,0,0,0,8.179-5.986A.543.543,0,0,0,31.5,4.908Z"/>
          <path class="cls-3" d="M49.593,34.945c-4.619,2.44-10.989,4.087-13.949,8.764-.248.392.2.8.586.711,2.739-.61,4.9-2.731,7.221-4.206,2.353-1.494,4.941-2.33,6.914-4.379C50.862,35.319,50.153,34.65,49.593,34.945Z"/>
          <path class="cls-3" d="M25.227,19.985C13.164,17.7,4.2,30.212,1.892,40.666-1,53.8,6.829,66.071,19.754,69.4a.522.522,0,0,0-.246.141c-1.029,1.086-1.425,2.749-1.894,4.133S16.5,76.394,16.074,77.8a.981.981,0,0,0,1.582,1.014c1.933-1.952,3.381-6.274,2.821-9.033a.477.477,0,0,0-.137-.242c.082.019.163.043.245.061.991.221,1.317-1.1.542-1.584C12.7,62.808,4.862,58.706,4.4,47.679,3.876,35.014,12.222,22.343,25.19,20.906A.48.48,0,0,0,25.227,19.985Z"/>
          <path class="cls-3" d="M54.788,55.088c-2.631-1.2-5.688-.716-8.545-.752-3.75-.046-7.477-.022-11.221.2a.938.938,0,0,0-.857,1,8.3,8.3,0,0,0,.592,2.152c.173.493.873.327,1.025-.077a3.751,3.751,0,0,0,.34-1.23c3.186-.062,6.375-.062,9.562-.025,3,.035,6.344.676,9.107-.563A.408.408,0,0,0,54.788,55.088Z"/>
          <g>
            <path class="cls-4" d="M35.9,75.191c-.793-1.623-1.264-3.336-2.2-4.9-.442-.741-1.735-.261-1.435.605.561,1.617.913,3.3,1.548,4.9a19.554,19.554,0,0,0,1.21,2.7c-2.557-.577-5.7-.1-8.175-.149-3.515-.072-7.135-.36-10.617.232.529-1.5.9-3.049,1.474-4.531.641-1.659,1.7-3.427,1.684-5.23a.685.685,0,0,0-1.267-.343,26.866,26.866,0,0,0-2.622,6.09c-.333,1.062-.628,2.136-.909,3.213-.259.993-.718,2.078.609,2.466,3.67,1.073,7.888.5,11.648.419,1.81-.037,3.615.173,5.426.148a7.631,7.631,0,0,0,3.978-.737C38.071,78.885,36.425,76.639,35.9,75.191Z"/>
            <path class="cls-4" d="M48.24,34.878c-2.831-5.176-6.278-9.479-9.4-14.5-2.235-3.591-4.312-7.187-7-11.125-.235-.345-1.525.06-1.375.5.9,2.642,4.064,7.449,5.813,10.188,3.414,5.346,7.187,10.437,10.326,15.9A.95.95,0,0,0,48.24,34.878Z"/>
            <path class="cls-4" d="M39.615,39.753c-2.831-5.176-6.278-9.479-9.4-14.5-2.235-3.591-4.312-7.187-7-11.125-.235-.345-1.525.06-1.375.5.9,2.642,4.064,7.449,5.813,10.188,3.414,5.346,7.187,10.437,10.326,15.9A.95.95,0,0,0,39.615,39.753Z"/>
            <path class="cls-4" d="M39.342,58.307c-3.051,6.2-12,6.654-17.659,4.924A18.823,18.823,0,0,1,8.9,49.689a19.625,19.625,0,0,1,3.573-17.052C16.865,27.2,22.365,26.8,28.665,25.55a.767.767,0,0,0,0-1.469C12.5,21.468,1.632,39.3,7.429,53.405c3.051,7.423,9.936,11.64,17.68,12.713,5.428.752,14.163-1,16.075-7.034C41.525,58.01,39.851,57.273,39.342,58.307Z"/>
            <path class="cls-4" d="M45.445,58.535C39.7,76.2,12.047,69.576,5.087,56.524a24.771,24.771,0,0,1,11.02-33.517c2.66-1.254,7.187-3.224,10.047-2.024.665.279,1.125-.705.672-1.156-2.329-2.316-6.042-.889-8.743.052A26.833,26.833,0,0,0,2.837,57.108c4.586,8.779,12.75,14,25.91,14.331,7.334.184,18.518-3.789,18.77-12.623A1.06,1.06,0,0,0,45.445,58.535Z"/>
            <path class="cls-4" d="M57.047,56.768Q57,55.507,56.881,54.25c-.083-.842-.8-.877-1.482-.948a48.425,48.425,0,0,0-5.019-.347c-1.855-.026-3.711.024-5.566.027-3.914.006-7.9-.252-11.776.284a.5.5,0,0,0-.38.282c-.587.457-.561,1.4-.533,2.088a18.351,18.351,0,0,0,.233,2.772c0,.013.011.021.014.033.179.746.987.644,1.663.717a94.925,94.925,0,0,0,10.33.264c2.034,0,4.068.065,6.1.056,1.017,0,2.033-.027,3.048-.087q.759-.045,1.515-.121a4.286,4.286,0,0,0,1.227-.174.9.9,0,0,0,.266-.2,2.481,2.481,0,0,0,.531-1.959Zm-12.682.82a81.539,81.539,0,0,0-10.037.238,12.375,12.375,0,0,0,.092-3.137c3.44.321,6.943.122,10.394.127a81.737,81.737,0,0,0,10.037-.238,12.327,12.327,0,0,0-.092,3.137C51.319,57.394,47.815,57.593,44.365,57.588Z"/>
            <path class="cls-4" d="M52.773,35.641l-.086-.13q-.637-.965-1.324-1.9c-.46-.623-.935-.366-1.409-.149A30.376,30.376,0,0,0,46.567,35.2c-1.2.719-2.368,1.5-3.557,2.238A54.14,54.14,0,0,0,35.6,42.344a.393.393,0,0,0-.107.37c-.156.59.317,1.314.668,1.84a20.438,20.438,0,0,0,1.49,2.066c.007.009.017.012.025.02.475.51.944.109,1.413-.1.854-.386,1.678-.832,2.492-1.3.412.73,1.3,1.263,1.76,1.915a.811.811,0,0,0,1.253.162c1.89-1.849,4.31-2.968,6.266-4.73a.826.826,0,0,0,0-1.16,12.9,12.9,0,0,1-1.007-1.23c.626-.393,1.244-.8,1.842-1.234q.465-.338.914-.7a2.721,2.721,0,0,0,.7-.624.725.725,0,0,0,.075-.261A2.644,2.644,0,0,0,52.773,35.641ZM43.766,45.809a6.936,6.936,0,0,1-.854-1.354c.983-.6,1.954-1.221,2.925-1.827.859-.535,1.73-1.051,2.6-1.571a4.828,4.828,0,0,0,.623.883C47.306,43.273,45.2,44.114,43.766,45.809ZM44.95,41.2a50.931,50.931,0,0,0-6.322,4.183A13.693,13.693,0,0,0,37.17,42.9a70.954,70.954,0,0,0,6.727-4.04,50.645,50.645,0,0,0,6.323-4.183,13.733,13.733,0,0,0,1.458,2.481A70.96,70.96,0,0,0,44.95,41.2Z"/>
            <path class="cls-4" d="M34.211,5.766l-.086-.13q-.637-.965-1.324-1.895c-.46-.623-.935-.366-1.41-.149a31.524,31.524,0,0,0-3.242,1.649C27,2.479,23.45-1.67,20.375.707c-1.464,1.132-1.413,3.438-1.09,5.081a10.166,10.166,0,0,0,1.544,3.958,27.677,27.677,0,0,0-3.8,2.723.4.4,0,0,0-.108.37c-.156.59.317,1.314.668,1.84a20.6,20.6,0,0,0,1.49,2.066c.008.009.017.012.025.02.476.51.944.109,1.413-.1a58.819,58.819,0,0,0,6.754-3.908c1.3-.812,2.64-1.569,3.94-2.385.65-.408,1.291-.831,1.913-1.282.309-.225.615-.457.913-.7a2.726,2.726,0,0,0,.7-.624.724.724,0,0,0,.074-.261A2.638,2.638,0,0,0,34.211,5.766ZM21.82,7.893a18.9,18.9,0,0,1-.862-3.222c-.158-1.1-.387-2.765,1.192-2.747a2.885,2.885,0,0,1,1.915.961,12.462,12.462,0,0,1,2.383,3.4c-.666.424-1.33.851-2,1.269-.722.45-1.456.887-2.191,1.325C22.111,8.52,21.91,8.162,21.82,7.893Zm4.568,3.431a50.868,50.868,0,0,0-6.323,4.183,13.693,13.693,0,0,0-1.458-2.48,70.97,70.97,0,0,0,6.728-4.04A50.707,50.707,0,0,0,31.657,4.8a13.683,13.683,0,0,0,1.459,2.481A70.835,70.835,0,0,0,26.388,11.324Z"/>
          </g>
        </g>
      </g>
    </g>
  </g>
</svg>
