<svg xmlns="http://www.w3.org/2000/svg" viewBox="0 0 68.127 59.807">
  <defs>
    <style>
      .cls-1 {
        isolation: isolate;
      }

      .cls-2 {
        fill: #d7dbdb;
        mix-blend-mode: multiply;
      }

      .cls-3 {
        fill: #fff;
      }

      .cls-4 {
        fill: #5d6f70;
      }
    </style>
  </defs>
  <title>medical-four</title>
  <g class="cls-1">
    <g id="Шар_2" data-name="Шар 2">
      <g id="BACKGROUND_1" data-name="BACKGROUND 1">
        <g>
          <path class="cls-2" d="M56.332,20.7a22.785,22.785,0,0,0-.118-7.659c-1-5.395-3.41-11.367-9.8-11.3-7.172.079-10.2,7.326-13.1,12.952l-.006-.007c-.406-.417-.81-.851-1.213-1.29C30.54,8.147,24.793,4.273,19.979,2.59a9.915,9.915,0,0,0-1.312-.364C11.112-.144,6.542,6.082,4.916,12.964,1.209,20.868,3.556,29,9.926,34.827c6.154,5.634,12.05,11.7,18.3,17.29,1.8,1.645,3.653,3.247,5.621,4.782a1.281,1.281,0,0,0,2.088.65A66.185,66.185,0,0,0,44.2,46.813C50.46,38.937,56.541,30.519,56.332,20.7Z"/>
          <g>
            <path class="cls-2" d="M57.2,17.356c-.264-.8-.246-1.846-.565-.978-1,2.72-2.737,7.406-3.767,10.13-1.587,4.2-3.56,6.617-5.862,10.643a80.763,80.763,0,0,1-7.9,11.888c-.947,1.149-2.675,4.215-3.984,4.771-2.12.9-7.075-4.278-8.809-5.642-3.475-2.735-6.833-5.8-10.428-8.326-.472-.331-1.294.142-.974.741,3.349,6.273,11.055,11.472,16.649,15.635,4.838,3.6,7.1-1.692,10.2-5.474a82.646,82.646,0,0,0,10.771-16C54.839,29.972,58.975,22.736,57.2,17.356Z"/>
            <path class="cls-3" d="M47,2.022C40.319,1.748,34.532,8.7,33.358,14.805a.462.462,0,0,0-.018-.105C30.054,5.771,18.972-3.012,9.873,4.279,1.417,11.056.727,28.123,9.087,35.1c.525.437,1.25-.2,1.131-.783-1.045-5.1-4.038-9.131-3.776-14.63A21.892,21.892,0,0,1,9.423,9.461c3.5-5.637,10.021-5.928,15.258-2.516,3.279,2.136,4.966,5.671,7.81,8.214a.578.578,0,0,0,.837-.124.523.523,0,0,0,.9.357c3.737-4,6.34-11.361,13.171-10.47,7.415.966,7.2,8.239,8.629,13.671.191.726,1.123.527,1.326-.057C59.872,11.3,55.1,2.353,47,2.022Z"/>
            <path class="cls-4" d="M66.957,24.506a97.068,97.068,0,0,1-9.723.62,27.234,27.234,0,0,0,.31-14.911c-1.682-5.872-5.4-10.487-12.1-9.186-5.9,1.146-10.043,7.04-12.229,12.4C31.084,7.4,24.467,1.167,18.388.164,10.483-1.141,3.667,5.569,2.06,12.824a25.744,25.744,0,0,0,3.3,19.3c-1.857.238-3.794.351-4.989.6a.483.483,0,0,0,.073.95c1.891.3,3.725-.2,5.613-.427C12.669,43.61,33.885,59.7,34.163,59.779c.941.569,8.084-7.615,10.691-11.017a69.206,69.206,0,0,0,7.775-11.968,77.222,77.222,0,0,0,4.09-9.922c1.043.062,2.017.129,2.771.112a70.1,70.1,0,0,0,7.878-.552C68.621,26.263,68.21,24.332,66.957,24.506ZM47.112,42.773C43.4,47.82,38.572,51.992,34.794,56.94c-4.923-4.414-9.82-8.818-14.942-13.025C15.9,40.67,11.936,37.163,9,32.973a3.8,3.8,0,0,0,1.518-.581c2.169-1.548,1.421-4.865,2.147-7.239,2.359,2.794,3.967,6.016,5.954,9.09a.963.963,0,0,0,.839.449.542.542,0,0,0,.745-.286.777.777,0,0,0,.169-.846c.895-4.905.464-10.023,1.135-14.957,2.856,8.766,3.853,18.233,7.034,26.883.367,1,1.771.485,1.874-.392.227-1.933.395-3.866.562-5.8.121-1.4-.242-4.278.363-5.548.926-1.945,5.809-2.323,8.013-1.726a.935.935,0,0,0,1.026-.353.381.381,0,0,0,.142-.145c1.636-3.025,2-7.066,2.262-10.857.288,1.959.414,4.011.728,5.631.755,3.9,1.062,7.992,2.058,11.807a.589.589,0,0,0,1.122.066c1.215-2.7,1.259-9.185,3.725-10.688,1.1-.669,2.951-.743,4.8-.678A49.834,49.834,0,0,1,47.112,42.773Zm9.047-20.544c-.131,1-.313,1.986-.535,2.968a45.786,45.786,0,0,0-7.242.845.9.9,0,0,0-.693.807,47.281,47.281,0,0,1-1.363,8.87c-.581-3.788-.673-7.687-1.418-11.459-.546-2.761-.441-6.147-1.845-8.631a.84.84,0,0,0-1.574.329c-.582,4.7-1.462,9.474-1.725,14.209-2.372-.606-7.569-.955-9.4.478-1.122.88-.988,2.317-1.126,3.568-.2,1.847-.31,3.7-.417,5.557-2.394-8.293-4.013-16.878-6.611-25.084a1.007,1.007,0,0,0-1.921-.113c-1.719,4.652-1.814,10.871-1.444,16.245a24.9,24.9,0,0,0-6-7.491.685.685,0,0,0-1.02.347c-.765,2.151-.268,5.708-2,7.132a4.894,4.894,0,0,1-1.727.8,25.032,25.032,0,0,1-2.8-6.147C2.931,17.454,3.831,7.331,12.3,3.39S30.182,9.11,33.075,16.362c.27.676,4.57-9.081,7.683-11.543A10.025,10.025,0,0,1,45.8,2.685C56.375,1.311,57.121,14.938,56.159,22.229Z"/>
          </g>
        </g>
      </g>
    </g>
  </g>
</svg>
