<svg xmlns="http://www.w3.org/2000/svg" viewBox="0 0 73.783 88.053">
  <defs>
    <style>
      .cls-1 {
        isolation: isolate;
      }

      .cls-2 {
        fill: #fff;
      }

      .cls-3 {
        fill: #d7dbdb;
        mix-blend-mode: multiply;
      }

      .cls-4 {
        fill: #5d6f70;
      }
    </style>
  </defs>
  <title>medical-one</title>
  <g class="cls-1">
    <g id="Шар_2" data-name="Шар 2">
      <g id="BACKGROUND_1" data-name="BACKGROUND 1">
        <g>
          <path class="cls-2" d="M62.06,61.808c-.8-5.252-1.539-10.514-2.367-15.762-1.786-11.318-3.371-22.215-3-33.67-1.844-.377-4.155.172-5.776.42A1.33,1.33,0,0,0,49.9,14.021c-.261,3-16.147,4.689-18.508,5.087q-4.854.819-9.752,1.376c-1.636.189-3.843,1.037-5.3.15a6.227,6.227,0,0,1-.935-1.252l.1-.008c1.031-.09,1.1-1.63.024-1.641a30.054,30.054,0,0,0-7.688,1.209.99.99,0,0,0-.646.807c-.262,4.1.356,8.4.541,12.511A101.75,101.75,0,0,0,9.759,47.965c1.168,5.726,1.93,11.48,2.783,17.26.611,4.134.593,8.454,1.89,12.449a1.211,1.211,0,0,0,.658.743A48.726,48.726,0,0,1,26.2,76.353c6.062-.664,12.054-1.294,18.079-2.281,5.2-.851,10.368-1.855,15.548-2.82,1.159-.216,2.325-.512,3.495-.8C62.77,67.568,62.484,64.588,62.06,61.808Z"/>
          <g>
            <path class="cls-3" d="M50.8,12.541a.684.684,0,0,0-1.057.212c-.448,1.345-.325,2.615-1.783,3.454-2.351,1.353-7.468,1.16-10.182,1.589-7.015,1.11-14.22,1.464-21.18,2.813a.62.62,0,0,0,.018,1.224c9.626,1.553,20.31-.775,29.831-2.316,2.022-.327,5.009-.352,5.853-2.712A3.975,3.975,0,0,0,50.8,12.541Z"/>
            <path class="cls-3" d="M66.855,74.053C58.52,76.09,49.933,76.6,41.4,77.413c-8.857.843-17.812,1.595-26.548,3.14-.735.13-.544,1.372.167,1.5,3.975.718,8.683-.128,12.688-.558,4.921-.527,9.841-.931,14.775-1.3,5.134-.382,10.258-.966,15.363-1.629,3.453-.448,6.551-.6,9.841-1.681C69.257,76.369,68.471,73.658,66.855,74.053Z"/>
            <path class="cls-3" d="M71.031,61.5c-.6-5.893-1.371-11.768-2.107-17.646a137.375,137.375,0,0,0-3.035-17.126,86.764,86.764,0,0,1-2.7-18.672C63.184,7.329,62.07,7,62.022,7.72c-.713,10.776,2.342,26.03,3.667,36.666.7,5.578,1.7,10.916,2.333,16.5.652,5.7,2.124,10.289,2.31,15.777C52.4,80.51,33.916,82.148,15.876,85.516c-.919.171-.616,1.521.292,1.408,9.338-1.163,18.692-2.234,28.018-3.485q6.855-.919,13.682-2.061c4.127-.69,8.635-.961,12.683-2.119a1.23,1.23,0,0,0,2.141-.773C72.917,72.832,71.607,67.12,71.031,61.5Z"/>
            <path class="cls-2" d="M33.219.752c-2.112-.38-4.672-.11-6.124,1.7-.7.871-.519,1.807-.923,2.732-1.089,2.494-2.965,1.854-5.041,2.47a6.178,6.178,0,0,0-4.374,4.136,15.78,15.78,0,0,0,.3,8.249.866.866,0,0,0,1.317.37c1.69-1.461.836-3.476.8-5.5-.072-4.129,2.216-4.4,5.694-5.022a4.371,4.371,0,0,0,3.556-2.329c.419-.866.194-1.814.482-2.678C29.6,2.8,31.653,2.271,33.393,1.642,33.886,1.463,33.619.824,33.219.752Z"/>
            <path class="cls-2" d="M7.892,16.012q1.55-.239,3.1-.492c1.916-.315,3.224-.5,4.618-1.846a.386.386,0,0,0-.322-.664c-3.053.392-6.131.745-9.169,1.239-1.109.18-2.713.262-3.555,1.1-1.47,1.474-.508,3.239-.236,5.049.587,3.905.847,7.882,1.327,11.8,1.147,9.36,2.829,18.633,4.2,27.96,1.261,8.585,1.3,17.627,3.623,26,.273.985,1.959.729,1.8-.317-1.21-7.992-1.77-16.049-2.948-24.044C9.184,54.031,7.636,46.326,6.5,38.552c-.537-3.688-.955-7.382-1.334-11.09-.273-2.672-1.5-6.92-.871-9.545C4.8,15.818,5.541,16.375,7.892,16.012Z"/>
            <path class="cls-2" d="M62.337,6.139c-4.518.124-8.879,1.912-13.344,2.407a.51.51,0,0,0-.071,1.005c2.317.466,4.432.006,6.743-.339,2.287-.341,4.8-.388,6.943-1.28C63.507,7.558,63.45,6.109,62.337,6.139Z"/>
            <g>
              <path class="cls-4" d="M71.751,61.474q-1.217-9.529-2.428-19.056c-.739-5.781-1.343-11.58-2.2-17.346-.894-6.021-1.979-12.02-2.866-18.354a1.421,1.421,0,0,0-.235-.606.809.809,0,0,0-.821-.747C58.194,5.105,53.1,6.3,48.127,6.813c.084.074.17.143.251.227A1.58,1.58,0,0,1,48.7,8.658c4.46-.484,8.921-.953,13.372-1.437C63,14.19,65.75,35.988,66.65,42.6c1.64,12.042,2.86,24.326,5.109,36.268-9.475.511-19.04,2.421-28.431,3.689-10.5,1.417-21.084,2.462-31.616,3.607-.93-6.97-3.679-28.768-4.579-35.377-1.64-12.042-2.86-24.326-5.109-36.267,4.231-.228,8.479-.741,12.722-1.346a3.852,3.852,0,0,1,.5-2.419C7.232,11.913.123,13.064.086,13.5-.4,19.135,1.313,26.272,2.032,31.908Q3.249,41.436,4.46,50.964C5.2,56.745,5.8,62.543,6.659,68.309c.894,6.021,1.979,12.02,2.866,18.355a1.421,1.421,0,0,0,.235.606.809.809,0,0,0,.821.747c5.05.261,10.194-.961,15.2-1.463,5.061-.508,10.139-.856,15.185-1.517,10.1-1.324,32.663-4.381,32.729-5.151C74.184,74.247,72.47,67.11,71.751,61.474Z"/>
              <path class="cls-4" d="M66.535,58.784q-1.033-8.1-2.065-16.2c-.628-4.916-1.142-9.847-1.87-14.75-.76-5.121-1.683-10.222-2.437-15.609a1.209,1.209,0,0,0-.2-.515.687.687,0,0,0-.7-.635,48.931,48.931,0,0,0-9.434.8c.051.04.1.073.154.115a1.564,1.564,0,0,1,.5,1.5q3.912-.418,7.818-.839c.791,5.927,3.129,24.463,3.894,30.083,1.395,10.24,2.433,20.686,4.345,30.841-8.057.434-16.191,2.059-24.177,3.137C33.439,77.916,24.436,78.8,15.48,79.778c-.791-5.927-3.129-24.464-3.894-30.084-1.395-10.24-2.433-20.686-4.345-30.84,2.8-.151,5.607-.451,8.415-.816a2.7,2.7,0,0,1-.421-1.906c-5.378.811-9.615,1.546-9.642,1.853-.414,4.8,1.044,10.865,1.655,15.658q1.034,8.1,2.065,16.2c.628,4.916,1.142,9.847,1.87,14.75.76,5.12,1.682,10.221,2.437,15.608a1.208,1.208,0,0,0,.2.516.687.687,0,0,0,.7.635c4.295.222,8.668-.817,12.927-1.245,4.3-.431,8.622-.727,12.913-1.289C48.951,77.7,68.133,75.1,68.19,74.441,68.6,69.646,67.146,63.577,66.535,58.784Z"/>
              <path class="cls-4" d="M47.128,12.814c-4.476.678-9.084.9-13.588,1.546-5.027.716-10.351.985-15.313,2.243-.454.116-.467.961.094.9,5.034-.534,9.809-1.266,14.629-1.864,4.739-.588,9.735-.9,14.355-2.1A.375.375,0,0,0,47.128,12.814Z"/>
              <path class="cls-4" d="M48.132,5.694c-2.647-2.4-6.958-1.109-10.267-.925a6.26,6.26,0,0,0-7.2-4.695,6.2,6.2,0,0,0-5.554,6.4c-3.244.677-7.743.54-9.68,3.546-1.563,2.427-1.3,6.96-.568,9.607.673,2.415,2.353,2.151,4.665,1.727,4.816-.885,9.589-1.221,14.413-2.048,4.414-.476,8.713-1.247,13.159-1.6,2.343-.187,4.034-.366,4.06-2.873C51.191,12.082,50.27,7.635,48.132,5.694Zm-.244,9.741a32.339,32.339,0,0,1-6.783,1.285c-3.04.361-5.416.75-8.75,1.166a.373.373,0,0,0-.093.043c-2.561.332-4.658.56-7.191.925a32.355,32.355,0,0,1-6.884.511c-1.891-.2-1.532-1.569-1.7-3.555a9.352,9.352,0,0,1,.131-3.862C18,8.325,23.065,8.726,26.2,7.931a.837.837,0,0,0,.619-.8c-.4-3.187,1.353-5.392,4.156-5.753,2.765-.356,4.986,1.318,5.422,4.468a.834.834,0,0,0,.8.612c3.23-.04,8.016-1.735,10.292,1.407a9.384,9.384,0,0,1,1.124,3.7C48.963,13.524,49.664,14.757,47.888,15.435Z"/>
              <path class="cls-4" d="M32.4,3.605a3.739,3.739,0,0,0-4.127,2.17,3.977,3.977,0,0,0-.184.695,3.85,3.85,0,0,0,.132,1.885A3.459,3.459,0,0,0,33.09,10.2a3.408,3.408,0,0,0,1.694-4.727A3.452,3.452,0,0,0,32.4,3.605Zm.386,5.424c-1.24.725-3.062.483-3.4-1.086a2.75,2.75,0,0,1,1.149-2.815,2.2,2.2,0,0,1,1.656-.3,2.336,2.336,0,0,1,1.28.757A2.27,2.27,0,0,1,32.79,9.029Z"/>
            </g>
          </g>
        </g>
      </g>
    </g>
  </g>
</svg>
